<svg width="53" height="47" viewBox="0 0 53 47" fill="none" xmlns="http://www.w3.org/2000/svg">
<path d="M37.4238 2.00293H37.4277C39.3454 2.04708 41.2338 2.48398 42.9756 3.28613C44.7144 4.08693 46.2702 5.23543 47.5469 6.66016C52.5526 12.2012 52.0094 21.0427 46.6133 26.4248H46.6123L30.2754 42.7139L30.2744 42.7148C29.2937 43.6909 27.9652 44.2383 26.582 44.2383C25.199 44.2382 23.8713 43.6908 22.8906 42.7148L22.8896 42.7139L6.13281 26.0068V26.0059C4.77815 24.656 3.71269 23.0451 3.00293 21.2705C2.29297 19.4954 1.95331 17.5943 2.00488 15.6836C2.05647 13.7729 2.49806 11.8926 3.30273 10.1582C4.10652 8.42574 5.25584 6.87518 6.67969 5.60059C12.2313 0.603994 21.0937 1.15592 26.4834 6.53516H26.4824L26.5811 6.63281L27.1016 6.11523L27.1084 6.1084C28.4646 4.76935 30.0767 3.71585 31.8486 3.01074C33.6205 2.30566 35.5168 1.96297 37.4238 2.00293Z" fill="#EB0001" stroke="black" stroke-width="4"/>
</svg>
